<svg width="96" height="96" version="1.1" viewBox="0 0 53.34 53.34" xmlns="http://www.w3.org/2000/svg">
 <g transform="translate(0,-271.6)">
  <g transform="scale(1.0374 .96394)" fill="#bc2122" stroke-width=".25" style="font-feature-settings:normal;font-variant-caps:normal;font-variant-ligatures:normal;font-variant-numeric:normal" aria-label="ali">
   <path d="m19.225 298.25q0.70399 0 1.2373-0.0213 0.55466-0.0427 0.91732-0.128v-3.3066q-0.21333-0.10667-0.70399-0.17067-0.46933-0.0853-1.152-0.0853-0.44799 0-0.95999 0.064-0.49066 0.064-0.91732 0.27733-0.40533 0.192-0.68266 0.55466-0.27733 0.34133-0.27733 0.91732 0 1.0666 0.68266 1.4933 0.68266 0.40533 1.856 0.40533zm-0.17066-9.9412q1.1946 0 2.0053 0.31999 0.83199 0.29866 1.3226 0.87466 0.51199 0.55465 0.72532 1.344 0.21333 0.76799 0.21333 1.7066v6.9332q-0.256 0.0427-0.72532 0.12799-0.44799 0.064-1.024 0.128t-1.2586 0.10667q-0.66132 0.064-1.3226 0.064-0.93865 0-1.728-0.192-0.78932-0.192-1.3653-0.59733-0.57599-0.42666-0.89599-1.1093-0.32-0.68266-0.32-1.6426 0-0.91732 0.36266-1.5786 0.384-0.66133 1.024-1.0666 0.63999-0.40533 1.4933-0.59733 0.85332-0.192 1.792-0.192 0.29866 0 0.61866 0.0427 0.32 0.0213 0.59732 0.0853 0.29866 0.0427 0.51199 0.0853 0.21333 0.0427 0.29866 0.064v-0.55466q0-0.49065-0.10666-0.95998-0.10667-0.49066-0.384-0.85332-0.27733-0.384-0.76799-0.59733-0.46933-0.23466-1.2373-0.23466-0.98132 0-1.728 0.14933-0.72532 0.128-1.088 0.27733l-0.23466-1.6426q0.384-0.17067 1.28-0.32 0.89599-0.17066 1.9413-0.17066z" style="font-feature-settings:normal;font-variant-caps:normal;font-variant-ligatures:normal;font-variant-numeric:normal"/>
   <path d="m29.934 299.89q-1.8346-0.0427-2.6026-0.78932-0.76799-0.74665-0.76799-2.3253v-13.312l1.984-0.34133v13.333q0 0.49066 0.08533 0.81065 0.08533 0.32 0.27733 0.51199 0.192 0.192 0.51199 0.29867 0.32 0.0853 0.78932 0.14933z" style="font-feature-settings:normal;font-variant-caps:normal;font-variant-ligatures:normal;font-variant-numeric:normal"/>
   <path d="m34.414 299.68h-1.984v-11.093h1.984zm-1.0027-13.098q-0.53333 0-0.91732-0.34133-0.36266-0.36266-0.36266-0.95999 0-0.59732 0.36266-0.93865 0.384-0.36266 0.91732-0.36266t0.89599 0.36266q0.384 0.34133 0.384 0.93865 0 0.59733-0.384 0.95999-0.36266 0.34133-0.89599 0.34133z" style="font-feature-settings:normal;font-variant-caps:normal;font-variant-ligatures:normal;font-variant-numeric:normal"/>
  </g>
  <g transform="scale(1.0374 .96394)" fill="#f3c84a" style="font-feature-settings:normal;font-variant-caps:normal;font-variant-ligatures:normal;font-variant-numeric:normal" aria-label="X">
   <path d="m29.791 319.64q-0.32-0.64-0.768-1.408-0.448-0.78933-0.98133-1.6213-0.53333-0.85333-1.1093-1.6853-0.576-0.85333-1.1093-1.6-0.53333 0.74666-1.1093 1.6-0.576 0.832-1.1093 1.6853-0.512 0.832-0.98133 1.6213-0.448 0.768-0.768 1.408h-2.2827q0.96-1.8773 2.2187-3.8187 1.28-1.9413 2.7093-3.9893l-4.736-6.976h2.3893l3.648 5.504 3.6053-5.504h2.368l-4.6507 6.8906q1.4507 2.0693 2.7307 4.032 1.28 1.9627 2.2613 3.8613z" fill="#f3c84a" stroke-width=".25" style="font-feature-settings:normal;font-variant-caps:normal;font-variant-ligatures:normal;font-variant-numeric:normal"/>
  </g>
  <g transform="scale(1.0374 .96394)" fill="#55679e" stroke-width=".25" style="font-feature-settings:normal;font-variant-caps:normal;font-variant-ligatures:normal;font-variant-numeric:normal" aria-label="com">
   <path d="m12.335 335.53q-1.344 0-2.368-0.42667-1.0027-0.42667-1.7067-1.1947-0.68267-0.768-1.024-1.8133-0.34133-1.0667-0.34133-2.3467 0-1.28 0.36267-2.3467 0.384-1.0667 1.0667-1.8347 0.68267-0.78933 1.664-1.216 1.0027-0.448 2.2187-0.448 0.74666 0 1.4933 0.128 0.74667 0.128 1.4293 0.40533l-0.448 1.6853q-0.448-0.21333-1.0453-0.34133-0.576-0.128-1.2373-0.128-1.664 0-2.56 1.0453-0.87466 1.0453-0.87466 3.0507 0 0.896 0.192 1.6427 0.21333 0.74666 0.64 1.28 0.448 0.53333 1.1307 0.83199 0.68267 0.27734 1.664 0.27734 0.78933 0 1.4293-0.14934 0.64-0.14933 1.0027-0.32l0.27733 1.664q-0.17067 0.10667-0.49066 0.21333-0.32 0.0853-0.72533 0.14934-0.40533 0.0853-0.87466 0.128-0.448 0.064-0.87466 0.064z" style="font-feature-settings:normal;font-variant-caps:normal;font-variant-ligatures:normal;font-variant-numeric:normal"/>
   <path d="m26.948 329.72q0 1.3227-0.384 2.3893-0.384 1.0667-1.088 1.8347-0.68267 0.768-1.6427 1.1947-0.96 0.40533-2.0907 0.40533-1.1307 0-2.0907-0.40533-0.96-0.42667-1.664-1.1947-0.68266-0.768-1.0667-1.8347-0.384-1.0667-0.384-2.3893 0-1.3013 0.384-2.368 0.384-1.088 1.0667-1.856 0.704-0.768 1.664-1.1733 0.96-0.42667 2.0907-0.42667 1.1307 0 2.0907 0.42667 0.96 0.40533 1.6427 1.1733 0.704 0.768 1.088 1.856 0.384 1.0667 0.384 2.368zm-2.0693 0q0-1.8773-0.85333-2.9653-0.832-1.1093-2.2827-1.1093-1.4507 0-2.304 1.1093-0.832 1.088-0.832 2.9653t0.832 2.9867q0.85333 1.088 2.304 1.088 1.4507 0 2.2827-1.088 0.85333-1.1093 0.85333-2.9867z" style="font-feature-settings:normal;font-variant-caps:normal;font-variant-ligatures:normal;font-variant-numeric:normal"/>
   <path d="m29.742 324.5q0.68266-0.17066 1.792-0.36266 1.1307-0.192 2.6027-0.192 1.0667 0 1.792 0.29867 0.72533 0.27733 1.216 0.83199 0.14933-0.10666 0.46933-0.29866 0.32-0.192 0.78933-0.36267 0.46933-0.192 1.0453-0.32 0.576-0.14933 1.2373-0.14933 1.28 0 2.0907 0.384 0.81066 0.36266 1.2587 1.0453 0.46933 0.68266 0.61866 1.6213 0.17067 0.93866 0.17067 2.048v6.2293h-1.984v-5.8027q0-0.98133-0.10667-1.6853-0.08533-0.704-0.36267-1.1733-0.256-0.46933-0.72533-0.68266-0.448-0.23467-1.1733-0.23467-1.0027 0-1.664 0.27733-0.64 0.256-0.87466 0.46933 0.17067 0.55467 0.256 1.216 0.08533 0.66133 0.08533 1.3867v6.2293h-1.984v-5.8027q0-0.98133-0.10667-1.6853-0.10667-0.704-0.384-1.1733-0.256-0.46933-0.72533-0.68266-0.448-0.23467-1.152-0.23467-0.29867 0-0.64 0.0213-0.34133 0.0213-0.66133 0.064-0.29867 0.0213-0.55466 0.064-0.256 0.0427-0.34133 0.064v9.3653h-1.984z" style="font-feature-settings:normal;font-variant-caps:normal;font-variant-ligatures:normal;font-variant-numeric:normal"/>
  </g>
 </g>
</svg>
